{"title":"Grave Encounters 2011 BRRip x264 AAC-UNiQUE","uid":7496230,"size":1090856875,"categoryP":"video","categoryS":"movies","magnet":"?xt=urn:btih:4bad3eb739364978303cce93982200231efea7f7&amp;dn=Grave+Encounters+2011+BRRip+x264+AAC-UNiQUE&amp;tr=udp%3A%2F%2Ftracker.openbittorrent.com%3A80&amp;tr=udp%3A%2F%2Fopen.demonii.com%3A1337&amp;tr=udp%3A%2F%2Ftracker.coppersurfer.tk%3A6969&amp;tr=udp%3A%2F%2Fexodus.desync.com%3A6969","seeders":1,"leechers":0,"uploader":"hiest","files":-1,"time":1343889557,"description":"##     ## ##    ## ####  #######  ##     ## ######## \n##     ## ###   ##  ##  ##     ## ##     ## ##       \n##     ## ####  ##  ##  ##     ## ##     ## ##       \n##     ## ## ## ##  ##  ##     ## ##     ## ######   \n##     ## ##  ####  ##  ##  ## ## ##     ## ##       \n##     ## ##   ###  ##  ##    ##  ##     ## ##       \n #######  ##    ## ####  ##### ##  #######  ######## \n\n\n#############Credits To DiNGiE &amp; Unique#############\n\n\nGeneral\nComplete name : Grave Encounters 2011 BRRip x264 AAC-UNiQUE.mp4\nFormat : MPEG-4\nFormat profile : Base Media\nCodec ID : isom\nFile size : 1 021 MiB\nDuration : 1h 33mn\nOverall bit rate mode : Variable\nOverall bit rate : 1 529 Kbps\nEncoded date : UTC 2012-08-01 09:40:28\n\nVideo\nID : 1\nFormat : AVC\nFormat/Info : Advanced Video Codec\nFormat profile : &lt;a class=&quot;__cf_email__&quot; href=&quot;/cdn-cgi/l/email-protection&quot; data-cfemail=&quot;abe3c2ccc3ebe79f859a&quot;&gt;[email&amp;#160;protected]&lt;/a&gt;&lt;script cf-hash='f9e31' type=&quot;text/javascript&quot;&gt;\n/* &lt;![CDATA[ */!function(){try{var t=&quot;currentScript&quot;in document?document.currentScript:function(){for(var t=document.getElementsByTagName(&quot;script&quot;),e=t.length;e--;)if(t[e].getAttribute(&quot;cf-hash&quot;))return t[e]}();if(t&amp;&amp;t.previousSibling){var e,r,n,i,c=t.previousSibling,a=c.getAttribute(&quot;data-cfemail&quot;);if(a){for(e=&quot;&quot;,r=parseInt(a.substr(0,2),16),n=2;a.length-n;n+=2)i=parseInt(a.substr(n,2),16)^r,e+=String.fromCharCode(i);e=document.createTextNode(e),c.parentNode.replaceChild(e,c)}}}catch(u){}}();/* ]]&gt; */&lt;/script&gt;\nFormat settings, CABAC : Yes\nFormat settings, ReFrames : 3 frames\nCodec ID : avc1\nCodec ID/Info : Advanced Video Coding\nDuration : 1h 33mn\nBit rate mode : Variable\nBit rate : 1 206 Kbps\nMaximum bit rate : 40.0 Mbps\nWidth : 720 pixels\nHeight : 400 pixels\nDisplay aspect ratio : 16:9\nFrame rate mode : Constant\nFrame rate : 23.976 fps\nColor space : YUV\nChroma subsampling : 4:2:0\nBit depth : 8 bits\nScan type : Progressive\nBits/(Pixel*Frame) : 0.175\nStream size : 805 MiB (79%)\nWriting library : x264 core 125 r2208 d9d2288\n\nAudio\nID : 2\nFormat : AAC\nFormat/Info : Advanced Audio Codec\nFormat profile : LC\nCodec ID : 40\nDuration : 1h 33mn\nBit rate mode : Variable\nBit rate : 320 Kbps\nMaximum bit rate : 383 Kbps\nChannel(s) : 6 channels\nChannel positions : Front: L C R, Side: L R, LFE\nSampling rate : 48.0 KHz\nCompression mode : Lossy\nStream size : 214 MiB (21%)\nLanguage : English\nEncoded date : UTC 2012-08-01 09:40:46\n\nSources : 720p.BluRay.X264-7SinS - Thanks!\n\nStoryline\nFor their ghost hunting reality show, a production crew locks themselves inside an abandoned mental hospital that's supposedly haunted - and it might prove to be all too true.\n\n\nIMDB: &lt;a href=&quot;\nhttp://www.imdb.com/title/tt1703199&quot; rel=&quot;nofollow&quot; target=&quot;_NEW&quot;&gt;\nhttp://www.imdb.com/title/tt1703199&lt;/a&gt;\n\n\nScreen Shots:\n  &lt;a href=&quot;\nhttp://63.imagebam.com/download/qdIC1qnFCE2pCmJxLzJ-Fg/20418/204178915/4.jpg&quot; rel=&quot;nofollow&quot; target=&quot;_NEW&quot;&gt;\nhttp://63.imagebam.com/download/qdIC1qnFCE2pCmJxLzJ-Fg/20418/204178915/4.jpg&lt;/a&gt;\n &lt;a href=&quot;\nhttp://66.imagebam.com/download/tkWzXK3A1e7IqhBu8G3y8Q/20418/204178914/3.jpg&quot; rel=&quot;nofollow&quot; target=&quot;_NEW&quot;&gt;\nhttp://66.imagebam.com/download/tkWzXK3A1e7IqhBu8G3y8Q/20418/204178914/3.jpg&lt;/a&gt;\n &lt;a href=&quot;\nhttp://58.imagebam.com/download/9Qcka816teOCOPSd5jdhgQ/20418/204178912/2.jpg&quot; rel=&quot;nofollow&quot; target=&quot;_NEW&quot;&gt;\nhttp://58.imagebam.com/download/9Qcka816teOCOPSd5jdhgQ/20418/204178912/2.jpg&lt;/a&gt;\n &lt;a href=&quot;\nhttp://63.imagebam.com/download/UtLDnrRYLQ7YJkWYhbfzLg/20418/204178910/1.jpg&quot; rel=&quot;nofollow&quot; target=&quot;_NEW&quot;&gt;\nhttp://63.imagebam.com/download/UtLDnrRYLQ7YJkWYhbfzLg/20418/204178910/1.jpg&lt;/a&gt;\n\n\n#############Credits To DiNGiE &amp; Unique#############\n\n\n##     ## ##    ## ####  #######  ##     ## ######## \n##     ## ###   ##  ##  ##     ## ##     ## ##       \n##     ## ####  ##  ##  ##     ## ##     ## ##       \n##     ## ## ## ##  ##  ##     ## ##     ## ######   \n##     ## ##  ####  ##  ##  ## ## ##     ## ##       \n##     ## ##   ###  ##  ##    ##  ##     ## ##       \n #######  ##    ## ####  ##### ##  #######  ######## ","torrent":{"xt":"urn:btih:4bad3eb739364978303cce93982200231efea7f7","amp;dn":"Grave+Encounters+2011+BRRip+x264+AAC-UNiQUE","amp;tr":["udp%3A%2F%2Ftracker.openbittorrent.com%3A80","udp%3A%2F%2Fopen.demonii.com%3A1337","udp%3A%2F%2Ftracker.coppersurfer.tk%3A6969","udp%3A%2F%2Fexodus.desync.com%3A6969"],"infoHash":"4bad3eb739364978303cce93982200231efea7f7","infoHashBuffer":{"type":"Buffer","data":[75,173,62,183,57,54,73,120,48,60,206,147,152,34,0,35,30,254,167,247]},"announce":[],"urlList":[]}}